# xmcd
#
# Track frame offsets:
#	150
#	17010
#	34723
#	60963
#	76258
#	96478
#	117655
#	133845
#	152198
#	168770
#
# Disc length: 2526 seconds
#
# Revision: 1
# Processed by: cddbd v1.5.1PL0 Copyright (c) Steve Scherf et al.
# Submitted via: CDex 1.50Beta5
#
DISCID=7a09dc0a
DTITLE=斉藤さおり - LOOSE
DYEAR=1990
DGENRE=Pop
TTITLE0=TABOO
TTITLE1=Feel
TTITLE2=捨ててあげる
TTITLE3=サソリスト
TTITLE4=母のような愛で
TTITLE5=3ピースの想い
TTITLE6=Loose You
TTITLE7=ジェラシー
TTITLE8=Black Rose
TTITLE9=ラストソングを探すまで
EXTD=
EXTT0=
EXTT1=
EXTT2=
EXTT3=
EXTT4=
EXTT5=
EXTT6=
EXTT7=
EXTT8=
EXTT9=
PLAYORDER=
